# xmcd CD database file
#
# Track frame offsets:
#	150
#	17442
#	31717
#	43435
#	56455
#	72282
#	89607
#	103220
#	115077
#	133120
#	143580
#	158672
#	171560
#	186320
#	201700
#	222290
#	232980
#	245625
#	258330
#	274320
#
# Disc length: 3826 seconds
#
# Revision: 0
# Processed by: cddbd v1.5.1PL0 Copyright (c) Steve Scherf et al.
# Submitted via: CDex 1.51
#
DISCID=300ef014
DTITLE=Anne Kirkpatrick - The Best of Anne Kirkpatrick
DYEAR=1991
DGENRE=Country
TTITLE0=All he did was tell me lies
TTITLE1=Hold on me
TTITLE2=Darlin pal of mine
TTITLE3=Only love can break a heart
TTITLE4=Take me home
TTITLE5=Sailing
TTITLE6=I know a heartache
TTITLE7=Uprorar
TTITLE8=Long ago shoes
TTITLE9=Standing too close to the flames
TTITLE10=Come back again
TTITLE11=Safe in the arms of love
TTITLE12=Goulburn street
TTITLE13=Merry go round of life
TTITLE14=The lame fiddler
TTITLE15=Anectdotes of you
TTITLE16=My town
TTITLE17=Tonite I shoot the moon
TTITLE18=Baby with you
TTITLE19=Honky tonk girl
EXTD=YEAR: 1991
EXTT0=
EXTT1=
EXTT2=
EXTT3=
EXTT4=
EXTT5=
EXTT6=
EXTT7=
EXTT8=
EXTT9=
EXTT10=
EXTT11=
EXTT12=
EXTT13=
EXTT14=
EXTT15=
EXTT16=
EXTT17=
EXTT18=
EXTT19=
PLAYORDER=
